<svg height="511pt" viewBox="0 -15 511.99799 511" width="511pt" xmlns="http://www.w3.org/2000/svg"><path d="m224.421875.5h-209.335937c-8.332032 0-15.085938 6.753906-15.085938 15.085938 0 8.328124 6.753906 15.082031 15.085938 15.082031h4.210937l8.300781 133.984375c.222656 3.589844 1.71875 6.984375 4.222656 9.566406l37.292969 38.472656c8.664063 8.9375 20.089844 13.859375 32.167969 13.859375h36.070312c11.882813 0 23.167969-4.785156 31.785157-13.46875l38.425781-38.738281c2.578125-2.597656 4.121094-6.039062 4.347656-9.691406l8.296875-133.984375h4.214844c8.332031 0 15.082031-6.753907 15.082031-15.085938 0-8.328125-6.75-15.082031-15.082031-15.082031zm-87.070313 195.882812h-36.070312c-3.84375 0-7.574219-1.667968-10.507812-4.691406l-12.492188-12.886718h82.363281l-12.925781 13.03125c-2.910156 2.929687-6.589844 4.546874-10.367188 4.546874zm45.324219-47.746093h-125.84375l-7.308593-117.96875h140.460937zm0 0"/><path d="m287.578125 30.667969h4.210937l8.300782 133.984375c.222656 3.589844 1.71875 6.984375 4.222656 9.566406l37.292969 38.472656c8.664062 8.9375 20.089843 13.859375 32.167969 13.859375h36.070312c11.882812 0 23.171875-4.785156 31.785156-13.46875l38.425782-38.738281c2.578124-2.597656 4.121093-6.039062 4.347656-9.691406l8.296875-133.984375h4.214843c8.332032 0 15.082032-6.753907 15.082032-15.085938 0-8.328125-6.75-15.082031-15.082032-15.082031h-209.335937c-8.332031 0-15.085937 6.753906-15.085937 15.082031 0 8.332031 6.753906 15.085938 15.085937 15.085938zm122.265625 165.714843h-36.070312c-3.839844 0-7.574219-1.667968-10.503907-4.691406l-12.492187-12.886718h82.359375l-12.925781 13.03125c-2.90625 2.929687-6.589844 4.546874-10.367188 4.546874zm52.632812-165.714843-7.308593 117.96875h-125.84375l-7.308594-117.96875zm0 0"/><path d="m224.421875 254.792969h-209.335937c-8.332032 0-15.085938 6.753906-15.085938 15.082031 0 8.332031 6.753906 15.085938 15.085938 15.085938h4.210937l8.300781 133.984374c.222656 3.589844 1.71875 6.980469 4.222656 9.566407l37.292969 38.46875c8.664063 8.9375 20.089844 13.859375 32.167969 13.859375h36.070312c11.878907 0 23.167969-4.78125 31.785157-13.46875l38.425781-38.738282c2.578125-2.59375 4.121094-6.039062 4.347656-9.691406l8.296875-133.980468h4.214844c8.332031 0 15.082031-6.753907 15.082031-15.085938s-6.75-15.082031-15.082031-15.082031zm-87.070313 195.878906h-36.070312c-3.84375 0-7.574219-1.664063-10.507812-4.691406l-12.492188-12.882813h82.363281l-12.925781 13.027344c-2.910156 2.933594-6.589844 4.546875-10.367188 4.546875zm45.324219-47.746094h-125.84375l-7.308593-117.964843h140.457031zm0 0"/><path d="m496.914062 254.792969h-209.335937c-8.332031 0-15.085937 6.753906-15.085937 15.082031 0 8.332031 6.753906 15.085938 15.085937 15.085938h4.210937l8.300782 133.984374c.222656 3.589844 1.71875 6.980469 4.222656 9.566407l37.292969 38.46875c8.664062 8.9375 20.089843 13.859375 32.167969 13.859375h36.070312c11.882812 0 23.167969-4.78125 31.785156-13.46875l38.425782-38.738282c2.578124-2.597656 4.121093-6.039062 4.347656-9.691406l8.296875-133.980468h4.214843c8.332032 0 15.082032-6.753907 15.082032-15.085938s-6.75-15.082031-15.082032-15.082031zm-87.070312 195.878906h-36.070312c-3.839844 0-7.574219-1.664063-10.503907-4.691406l-12.492187-12.882813h82.359375l-12.925781 13.027344c-2.90625 2.933594-6.589844 4.546875-10.367188 4.546875zm45.324219-47.746094h-125.84375l-7.308594-117.964843h140.460937zm0 0"/></svg>